<mxfile host="app.diagrams.net" modified="2023-04-29T12:48:59.431Z" agent="Mozilla/5.0 (Windows NT 10.0; Win64; x64) AppleWebKit/537.36 (KHTML, like Gecko) Chrome/112.0.0.0 Safari/537.36" etag="68t8jbjqTyVXg1ptxCi4" version="21.2.3" type="device">
  <diagram name="Trang-1" id="5KC6xr1PUQ-DzxSLfRBX">
    <mxGraphModel dx="990" dy="790" grid="1" gridSize="10" guides="1" tooltips="1" connect="1" arrows="1" fold="1" page="1" pageScale="1" pageWidth="827" pageHeight="1169" math="0" shadow="0">
      <root>
        <mxCell id="0" />
        <mxCell id="1" parent="0" />
        <mxCell id="xT_QlT6mkNdKzfq0r4b0-5" style="edgeStyle=orthogonalEdgeStyle;rounded=0;orthogonalLoop=1;jettySize=auto;html=1;entryX=0;entryY=0.5;entryDx=0;entryDy=0;" edge="1" parent="1" source="xT_QlT6mkNdKzfq0r4b0-1" target="xT_QlT6mkNdKzfq0r4b0-4">
          <mxGeometry relative="1" as="geometry" />
        </mxCell>
        <mxCell id="xT_QlT6mkNdKzfq0r4b0-1" value="" style="ellipse;html=1;shape=endState;fillColor=#000000;strokeColor=#ff0000;" vertex="1" parent="1">
          <mxGeometry x="40" y="410" width="30" height="30" as="geometry" />
        </mxCell>
        <mxCell id="xT_QlT6mkNdKzfq0r4b0-3" value="" style="ellipse;html=1;shape=endState;fillColor=#000000;strokeColor=#ff0000;" vertex="1" parent="1">
          <mxGeometry x="210" y="250" width="30" height="30" as="geometry" />
        </mxCell>
        <mxCell id="xT_QlT6mkNdKzfq0r4b0-7" value="" style="edgeStyle=orthogonalEdgeStyle;rounded=0;orthogonalLoop=1;jettySize=auto;html=1;" edge="1" parent="1" source="xT_QlT6mkNdKzfq0r4b0-4" target="xT_QlT6mkNdKzfq0r4b0-6">
          <mxGeometry relative="1" as="geometry" />
        </mxCell>
        <mxCell id="xT_QlT6mkNdKzfq0r4b0-4" value="Giao diện chọn phương tiện" style="rounded=1;whiteSpace=wrap;html=1;" vertex="1" parent="1">
          <mxGeometry x="130" y="395" width="140" height="60" as="geometry" />
        </mxCell>
        <mxCell id="xT_QlT6mkNdKzfq0r4b0-10" value="" style="edgeStyle=orthogonalEdgeStyle;rounded=0;orthogonalLoop=1;jettySize=auto;html=1;" edge="1" parent="1" source="xT_QlT6mkNdKzfq0r4b0-6" target="xT_QlT6mkNdKzfq0r4b0-9">
          <mxGeometry relative="1" as="geometry" />
        </mxCell>
        <mxCell id="xT_QlT6mkNdKzfq0r4b0-6" value="Giao diện điền thông tiên cho vé mau" style="whiteSpace=wrap;html=1;rounded=1;" vertex="1" parent="1">
          <mxGeometry x="400" y="395" width="120" height="60" as="geometry" />
        </mxCell>
        <mxCell id="xT_QlT6mkNdKzfq0r4b0-8" value="Chọn phương tiện" style="text;html=1;strokeColor=none;fillColor=none;align=center;verticalAlign=middle;whiteSpace=wrap;rounded=0;" vertex="1" parent="1">
          <mxGeometry x="280" y="395" width="100" height="30" as="geometry" />
        </mxCell>
        <mxCell id="xT_QlT6mkNdKzfq0r4b0-16" style="edgeStyle=orthogonalEdgeStyle;rounded=0;orthogonalLoop=1;jettySize=auto;html=1;entryX=0.5;entryY=1;entryDx=0;entryDy=0;" edge="1" parent="1" source="xT_QlT6mkNdKzfq0r4b0-9" target="xT_QlT6mkNdKzfq0r4b0-14">
          <mxGeometry relative="1" as="geometry" />
        </mxCell>
        <mxCell id="xT_QlT6mkNdKzfq0r4b0-9" value="Giao diện chọn phương thức dùng để thanh toán" style="whiteSpace=wrap;html=1;rounded=1;" vertex="1" parent="1">
          <mxGeometry x="630" y="395" width="120" height="60" as="geometry" />
        </mxCell>
        <mxCell id="xT_QlT6mkNdKzfq0r4b0-11" value="Điền thông tin" style="text;html=1;strokeColor=none;fillColor=none;align=center;verticalAlign=middle;whiteSpace=wrap;rounded=0;" vertex="1" parent="1">
          <mxGeometry x="520" y="395" width="100" height="30" as="geometry" />
        </mxCell>
        <mxCell id="xT_QlT6mkNdKzfq0r4b0-23" style="edgeStyle=orthogonalEdgeStyle;rounded=0;orthogonalLoop=1;jettySize=auto;html=1;" edge="1" parent="1" source="xT_QlT6mkNdKzfq0r4b0-13">
          <mxGeometry relative="1" as="geometry">
            <mxPoint x="225" y="265" as="targetPoint" />
          </mxGeometry>
        </mxCell>
        <mxCell id="xT_QlT6mkNdKzfq0r4b0-13" value="Thông báo thành công" style="whiteSpace=wrap;html=1;rounded=1;" vertex="1" parent="1">
          <mxGeometry x="410" y="230" width="120" height="60" as="geometry" />
        </mxCell>
        <mxCell id="xT_QlT6mkNdKzfq0r4b0-14" value="Chờ" style="whiteSpace=wrap;html=1;rounded=1;" vertex="1" parent="1">
          <mxGeometry x="630" y="230" width="120" height="60" as="geometry" />
        </mxCell>
        <mxCell id="xT_QlT6mkNdKzfq0r4b0-19" value="" style="endArrow=classic;html=1;rounded=0;exitX=0.25;exitY=1;exitDx=0;exitDy=0;entryX=0.25;entryY=0;entryDx=0;entryDy=0;" edge="1" parent="1" source="xT_QlT6mkNdKzfq0r4b0-14" target="xT_QlT6mkNdKzfq0r4b0-9">
          <mxGeometry width="50" height="50" relative="1" as="geometry">
            <mxPoint x="580" y="500" as="sourcePoint" />
            <mxPoint x="630" y="450" as="targetPoint" />
          </mxGeometry>
        </mxCell>
        <mxCell id="xT_QlT6mkNdKzfq0r4b0-20" value="Không hợp lệ" style="text;html=1;strokeColor=none;fillColor=none;align=center;verticalAlign=middle;whiteSpace=wrap;rounded=0;" vertex="1" parent="1">
          <mxGeometry x="540" y="330" width="100" height="30" as="geometry" />
        </mxCell>
        <mxCell id="xT_QlT6mkNdKzfq0r4b0-21" value="Chọn phương thức và thực hiện" style="text;html=1;strokeColor=none;fillColor=none;align=center;verticalAlign=middle;whiteSpace=wrap;rounded=0;" vertex="1" parent="1">
          <mxGeometry x="700" y="330" width="100" height="30" as="geometry" />
        </mxCell>
        <mxCell id="xT_QlT6mkNdKzfq0r4b0-22" value="" style="endArrow=classic;html=1;rounded=0;entryX=1;entryY=0.5;entryDx=0;entryDy=0;exitX=0;exitY=0.5;exitDx=0;exitDy=0;" edge="1" parent="1" source="xT_QlT6mkNdKzfq0r4b0-14" target="xT_QlT6mkNdKzfq0r4b0-13">
          <mxGeometry width="50" height="50" relative="1" as="geometry">
            <mxPoint x="580" y="490" as="sourcePoint" />
            <mxPoint x="630" y="440" as="targetPoint" />
          </mxGeometry>
        </mxCell>
        <mxCell id="xT_QlT6mkNdKzfq0r4b0-24" value="Hợp lệ" style="text;html=1;strokeColor=none;fillColor=none;align=center;verticalAlign=middle;whiteSpace=wrap;rounded=0;" vertex="1" parent="1">
          <mxGeometry x="530" y="220" width="100" height="30" as="geometry" />
        </mxCell>
      </root>
    </mxGraphModel>
  </diagram>
</mxfile>
